<?xml version="1.0" encoding="UTF-8"?><svg xmlns="http://www.w3.org/2000/svg" xmlns:xlink="http://www.w3.org/1999/xlink" height="194.0" preserveAspectRatio="xMidYMid meet" version="1.1" viewBox="152.0 115.6 121.2 194.0" width="121.2" zoomAndPan="magnify">
 <g id="surface1">
  <g id="change1_1"><path d="m185.59 115.61l39.35 61.69h-30.14l-38.29-61.69h29.08" fill="#981b1f"/></g>
  <g id="change2_1"><path d="m227.67 182.87h-30.14c-1.54 0-2.78-1.25-2.78-2.78 0-1.54 1.24-2.79 2.78-2.79h30.14c1.54 0 2.79 1.25 2.79 2.79 0 1.53-1.25 2.78-2.79 2.78zm0.33-11.52h-30.8c-4.9 0-8.88 3.98-8.88 8.88v34.23h48.56v-34.23c0-4.9-3.98-8.88-8.88-8.88" fill="#234c67"/></g>
  <g id="change3_1"><path d="m273.21 248.98c0 33.47-27.14 60.61-60.61 60.61s-60.61-27.14-60.61-60.61 27.14-60.61 60.61-60.61 60.61 27.14 60.61 60.61" fill="#fabb4c"/></g>
  <g id="change4_1"><path d="m262.39 248.98c0 27.5-22.29 49.79-49.79 49.79-27.49 0-49.79-22.29-49.79-49.79s22.3-49.78 49.79-49.78c27.5 0 49.79 22.28 49.79 49.78" fill="#f8a24b"/></g>
  <g id="change3_2"><path d="m250.66 248.98c0 21.02-17.04 38.07-38.06 38.07s-38.07-17.05-38.07-38.07 17.05-38.07 38.07-38.07 38.06 17.05 38.06 38.07" fill="#fabb4c"/></g>
  <path d="m2025.7 1819.1c68.9 37.1 120.2 106.9 128.3 157.5v-413.9" fill="none" stroke="#fff766" stroke-linecap="round" stroke-linejoin="round" stroke-miterlimit="10" stroke-width="60" transform="matrix(.1 0 0 -.1 0 425.2)"/>
  <path d="m2089.8 1547.8h136.5" fill="none" stroke="#fff766" stroke-linecap="round" stroke-linejoin="round" stroke-miterlimit="10" stroke-width="60" transform="matrix(.1 0 0 -.1 0 425.2)"/>
  <g id="change5_1"><path d="m233.3 115.61l-39.35 61.69h30.14l38.29-61.69h-29.08" fill="#d7282f"/></g>
 </g>
</svg>