<?xml version="1.0" encoding="UTF-8"?><svg xmlns="http://www.w3.org/2000/svg" xmlns:xlink="http://www.w3.org/1999/xlink" height="17.4" preserveAspectRatio="xMidYMid meet" version="1.0" viewBox="0.0 0.0 484.0 17.4" width="484.0" zoomAndPan="magnify"><g id="change1_1"><path d="M13.6,12.5c0-2.5,0-4.9,0-7.3C23.1,7.1,32.7,6,42.3,6.1c9.7,0.1,19.4,0,29.2,0c56.2,0,112.3,0,168.5,0 c50.7,0,101.4,0,152.1,0c23.5,0,46.9,0,70.4-0.1c2.6,0,5.1-0.3,7.9-0.5c0,2,0,4.4,0,6.4c-9.8-1.2-19.7-0.5-29.5-0.6 c-50.7-0.1-101.3,0-152,0c-12,0-23.9-0.2-35.9-0.2c-59.7,0-119.3,0.1-179,0.2c-11.2,0-22.4-0.2-33.6-0.2c-7.3,0-14.7,0.1-22,0.3 C16.9,11.4,15.3,12.1,13.6,12.5z"/><path d="M0,8.8C3.3,6.7,4.8,4,3.3,0c3.1,1.1,5.8,2,8.8,3c0,3.7,0,7.6,0,11.4c-2.8,1-5.6,2-8.6,3C4.6,13.7,3.5,10.7,0,8.8z"/><path d="M480.7,0c-1.3,4,0,6.7,3.3,8.7c-3.4,1.9-4.2,4.9-4,8.5c-2.3-0.8-4.5-1.5-6.6-2.4c-0.7-0.4-1.5-1.5-1.6-2.3 c-0.2-3.1-0.1-6.2-0.1-9.4C474.7,2.1,477.5,1.1,480.7,0z"/></g></svg>